<?xml version="1.0" encoding="UTF-8"?>
<svg width="72px" height="72px" viewBox="0 0 72 72" version="1.1" xmlns="http://www.w3.org/2000/svg" xmlns:xlink="http://www.w3.org/1999/xlink">
    <title>nab-app-icon</title>
    <defs>
        <path d="M32.8877533,16.7311233 L44.5296389,2.27514153 C44.8788954,1.80502831 45.228152,1.6875 45.4609897,1.6875 C45.8102463,1.80502831 46.043084,2.15761323 46.1595028,2.74525476 L50.1177439,20.7270857 C50.2341628,21.0796706 50.0013251,21.4322555 49.6520685,21.7848404 L35.0997116,39.6491431 C34.8668738,39.8841997 35.0997116,40.2367846 35.4489681,39.8841997 L52.6789588,21.3147272 C53.0282153,20.9621423 53.261053,20.844614 53.7267285,20.844614 L59.8969278,20.844614 C60.4790221,20.844614 60.4790221,21.3147272 60.2461844,21.5497838 L45.4609897,39.6491431 C45.228152,39.8841997 45.4609897,40.2367846 45.8102463,39.8841997 L63.1566558,21.1971989 C63.3894935,20.9621423 63.6223312,20.844614 63.9715877,20.844614 L68.628342,20.844614 C69.7925305,20.844614 70.0253682,21.5497838 69.443274,22.2549537 L57.6849695,36.945992 L69.2104362,51.519502 C69.5596928,51.872087 69.5596928,52.3422002 69.443274,52.5772568 C69.3268551,52.9298417 68.9775985,53.1648983 68.3955043,53.1648983 L50.0013251,53.1648983 L45.8102463,71.1467293 C45.6938274,71.6168425 45.4609897,71.9694274 45.228152,71.9694274 C44.8788954,72.0869557 44.5296389,71.8518991 44.1803823,71.4993142 L32.5384967,56.9258042 L16.1234381,64.917729 C15.6577627,65.1527856 15.1920872,65.1527856 14.9592495,64.917729 C14.7264118,64.6826724 14.7264118,64.3300875 14.8428307,63.8599742 L18.9174906,45.6430867 L2.50243199,37.4161052 C1.92033771,37.1810486 1.6875,36.8284637 1.6875,36.5934071 C1.6875,36.2408222 1.80391886,36.0057656 2.50243199,35.6531806 L19.0339095,27.6612558 L15.0756684,9.67942486 C14.9592495,9.09178332 15.0756684,8.6216701 15.3085061,8.50414179 C15.6577627,8.26908518 16.0070192,8.26908518 16.4726947,8.50414179 L32.8877533,16.7311233 Z" id="path-1"></path>
    </defs>
    <g id="Mobile-type_v1" stroke="none" stroke-width="1" fill="none" fill-rule="evenodd">
        <g id="nab-app-icon">
            <rect id="Rectangle" fill="#000000" x="0" y="0" width="72" height="72"></rect>
            <g id="Logo-/-Star">
                <mask id="mask-2" fill="white">
                    <use xlink:href="#path-1"></use>
                </mask>
                <use id="logo--nab" fill="#C20000" xlink:href="#path-1"></use>
            </g>
        </g>
    </g>
</svg>