<?xml version="1.0" encoding="utf-8"?>
<!-- Generator: Adobe Illustrator 24.0.3, SVG Export Plug-In . SVG Version: 6.00 Build 0)  -->
<svg xmlns="http://www.w3.org/2000/svg" xmlns:xlink="http://www.w3.org/1999/xlink" version="1.1" id="Layer_1" x="0px" y="0px" viewBox="0 0 66 34" style="enable-background:new 0 0 66 34;" xml:space="preserve">
    <rect xmlns="http://www.w3.org/2000/svg" width="66" height="34"/>
    <g transform="translate(1,1)">
        <path d="M39.5926 16.8766C39.5926 17.441 39.7732 17.5313 40.0103 17.5313C40.2135 17.5313 40.3828 17.4749 40.428 17.4636V18.3216C40.3715 18.3441 40.1683 18.4119 39.8748 18.4119C39.3668 18.4119 39.1185 18.2877 38.983 18.1974C38.8475 18.1184 38.5427 17.8813 38.5427 17.2266V14.9236H37.5945V14.0544H38.5427V12.7901H39.5926V14.0544H40.665V14.9236H39.5926V16.8766V16.8766ZM43.9614 13.9754C43.0808 13.9754 42.6632 14.5172 42.5164 14.7204V12.4965H41.4553V18.3329H42.5164V16.0186C42.5164 15.4203 42.8889 14.8559 43.5663 14.8559C44.4468 14.8559 44.4807 15.5558 44.4807 15.8719V18.3329H45.5418V15.6235C45.5305 14.4834 44.8871 13.9754 43.9614 13.9754ZM54.0536 13.9754C53.173 13.9754 52.7553 14.5172 52.6086 14.7204V14.0544H51.5474V18.3329H52.6086V16.0186C52.6086 15.4203 52.9811 14.8559 53.6584 14.8559C54.539 14.8559 54.5728 15.5558 54.5728 15.8719V18.3329H55.634V15.6235C55.6227 14.4834 54.9792 13.9754 54.0536 13.9754ZM50.7911 18.3329H49.7299C49.7074 18.3103 49.538 18.0845 49.5155 17.8587C49.459 17.9265 49.0639 18.4119 48.0141 18.4119C47.2013 18.4119 46.4223 18.0619 46.4223 17.1475C46.4223 16.3686 47.0319 16.0864 47.3029 15.9848C47.5738 15.8832 47.8447 15.8155 48.1834 15.7816C48.6688 15.7364 49.0188 15.6913 49.2107 15.6461C49.4026 15.601 49.5155 15.5332 49.5155 15.4316C49.5155 15.3187 49.4703 14.8446 48.5333 14.8446C48.206 14.8446 47.5286 14.8785 47.5286 15.5445H46.5352C46.5352 14.2463 47.856 13.9754 48.6011 13.9754C49.5719 13.9754 50.5427 14.3931 50.5427 15.4768V17.4297C50.5427 17.5313 50.554 17.6329 50.554 17.7345C50.5766 18.1071 50.7685 18.3103 50.7911 18.3329ZM49.5268 16.267C49.4139 16.3009 49.301 16.3234 49.1655 16.346C48.9284 16.3912 48.6801 16.425 48.4317 16.4476C48.1156 16.4815 47.8786 16.5266 47.7205 16.617C47.5625 16.696 47.4835 16.8314 47.4835 17.0121C47.4835 17.4975 48.0253 17.5426 48.2963 17.5426C48.951 17.5426 49.538 17.2266 49.538 16.4702V16.267H49.5268ZM49.6961 23.3451C49.6961 24.5643 48.8607 25.5577 47.4045 25.5577C45.9482 25.5577 45.1128 24.5643 45.1128 23.3451C45.1128 22.1259 45.9482 21.1325 47.4045 21.1325C48.8494 21.1212 49.6961 22.1259 49.6961 23.3451ZM48.6236 23.3451C48.6236 22.6 48.1721 22.0017 47.4045 22.0017C46.6368 22.0017 46.1853 22.6113 46.1853 23.3451C46.1853 24.0901 46.6368 24.6885 47.4045 24.6885C48.1721 24.6885 48.6236 24.0789 48.6236 23.3451ZM53.0376 21.1212C52.157 21.1212 51.7394 21.6631 51.5926 21.8662V21.2002H50.5315V25.4787H51.5926V23.1306C51.5926 22.5323 51.9651 21.9904 52.6425 21.9904C53.523 21.9904 53.5569 22.6903 53.5569 23.0064V25.4674H54.618V22.7581C54.6067 21.6292 53.9632 21.1212 53.0376 21.1212ZM53.015 21.1212C52.1345 21.1212 51.7168 21.6631 51.57 21.8662V21.2002H50.5089V25.4787H51.57V23.1645C51.57 22.5662 51.9426 22.0017 52.6199 22.0017C53.5004 22.0017 53.5343 22.7016 53.5343 23.0177V25.4787H54.5954V22.7694C54.5954 21.6292 53.9407 21.1212 53.015 21.1212ZM44.1646 21.9566C44.0743 21.6743 43.9275 21.4824 43.7243 21.347C43.5211 21.2002 43.2502 21.1325 42.9115 21.1325C42.0423 21.1325 41.6923 21.6292 41.5117 21.9566C41.4214 21.6743 41.2746 21.4824 41.0714 21.347C40.8682 21.2002 40.5973 21.1325 40.2586 21.1325C39.4346 21.1325 39.1072 21.7195 38.9943 21.8775V21.2115H37.9331V25.49H38.9943V23.187C38.9943 22.95 39.0507 22.0017 39.8748 22.0017C40.3151 22.0017 40.586 22.2162 40.586 22.9726V25.49H41.6472V23.187C41.6472 22.95 41.7036 22.0017 42.5277 22.0017C42.968 22.0017 43.2389 22.2162 43.2389 22.9726V25.49H44.2887V23.187C44.2887 23.0403 44.3226 22.3065 44.1646 21.9566ZM59.9463 23.3451C59.9463 23.4015 59.9463 23.458 59.9463 23.5257C59.9463 23.5934 59.935 23.6386 59.935 23.6612H56.4919C56.65 24.6659 57.4741 24.6772 57.745 24.6772C58.7497 24.6772 58.8287 24.1805 58.84 24.1127H59.8899C59.8899 24.5981 59.269 25.5464 57.6998 25.5464C56.3565 25.5464 55.4082 24.6659 55.4082 23.3338C55.4082 22.0694 56.2775 21.1212 57.6998 21.1212C59.1335 21.1212 59.9463 22.0807 59.9463 23.3451ZM58.8513 22.9274C58.84 22.7806 58.7497 21.9904 57.7111 21.9904C56.6839 21.9904 56.5145 22.8145 56.4807 22.9274H58.8513ZM63.3894 21.2002L62.3734 24.4288L61.3574 21.2002H60.2963L61.8428 25.7383C61.8541 25.7722 61.8654 25.7948 61.8767 25.8286C61.6961 26.1334 61.3574 26.4834 60.8607 26.4947C60.7704 26.4947 60.4543 26.4608 60.4204 26.4382V27.2623C60.443 27.2736 60.6462 27.3187 60.9397 27.3187C62.1138 27.3187 62.5089 26.7995 62.8927 25.7496L64.4393 21.2115H63.3894V21.2002ZM49.6961 8.66964C49.6961 9.88883 48.8607 10.8822 47.4045 10.8822C45.9482 10.8822 45.1128 9.88883 45.1128 8.66964C45.1128 7.45045 45.9482 6.45703 47.4045 6.45703C48.8494 6.45703 49.6961 7.45045 49.6961 8.66964ZM48.6236 8.66964C48.6236 7.92458 48.1721 7.32627 47.4045 7.32627C46.6368 7.32627 46.1853 7.93587 46.1853 8.66964C46.1853 9.4147 46.6368 10.013 47.4045 10.013C48.1721 10.0243 48.6236 9.4147 48.6236 8.66964ZM44.1646 7.2924C44.0743 7.01018 43.9275 6.81827 43.7243 6.68281C43.5211 6.53605 43.2502 6.46832 42.9115 6.46832C42.0423 6.46832 41.6923 6.96503 41.5117 7.2924C41.4214 7.01018 41.2746 6.81827 41.0714 6.68281C40.8682 6.53605 40.5973 6.46832 40.2586 6.46832C39.4346 6.46832 39.1072 7.05534 38.9943 7.21338V6.54734H37.9331V10.8258H38.9943V8.52288C38.9943 8.28582 39.0507 7.33756 39.8748 7.33756C40.3151 7.33756 40.586 7.55204 40.586 8.30839V10.8258H41.6472V8.52288C41.6472 8.28582 41.7036 7.33756 42.5277 7.33756C42.968 7.33756 43.2389 7.55204 43.2389 8.30839V10.8258H44.2887V8.52288C44.2887 8.37613 44.3226 7.64236 44.1646 7.2924ZM52.7892 6.46832C51.92 6.46832 51.6378 6.99889 51.57 7.21338V6.54734H50.5202V10.8258H51.57V8.64706C51.57 8.3987 51.6152 7.33756 52.7102 7.33756C53.0037 7.33756 53.2069 7.45045 53.2069 7.45045L53.3988 6.56992C53.173 6.46832 52.9585 6.46832 52.7892 6.46832ZM58.2191 8.68093C58.2191 8.73737 58.2191 8.79381 58.2191 8.86155C58.2191 8.92928 58.2078 8.97443 58.2078 8.99701H54.7648C54.9228 10.0017 55.7469 10.013 56.0178 10.013C57.0225 10.013 57.1015 9.5163 57.1128 9.44856H58.1627C58.1627 9.93398 57.5418 10.8822 55.9727 10.8822C54.6293 10.8822 53.681 10.0017 53.681 8.66964C53.681 7.40529 54.5503 6.45703 55.9727 6.45703C57.4063 6.45703 58.2191 7.41658 58.2191 8.68093ZM57.1128 8.26324C57.1015 8.11649 57.0112 7.32627 55.9727 7.32627C54.9454 7.32627 54.776 8.15035 54.7422 8.26324H57.1128Z" fill="white"/>
        <path d="M31.6227 22.6113L26.3621 16.0074L31.6227 9.40341C31.9388 8.99701 31.7807 8.66964 31.2727 8.66964H29.2633C29.1617 8.66964 29.015 8.72608 28.9472 8.8051L22.0836 16.0074H21.666L26.9265 9.40341C27.2426 8.99701 27.0846 8.66964 26.5766 8.66964H24.5785C24.4769 8.66964 24.3301 8.72608 24.2624 8.8051L17.3988 16.0074H16.9811L22.7158 8.81639C22.7836 8.73737 22.8174 8.59062 22.7948 8.48902L20.9548 0.440099C20.8419 -0.0678967 20.4806 -0.146918 20.1646 0.259479L14.904 6.86343L7.29532 3.20586C6.83247 2.98008 6.55026 3.20586 6.66314 3.71385L8.53708 11.9434L0.92843 15.601C0.465589 15.8267 0.465589 16.188 0.92843 16.4138L8.53708 20.0713L6.66314 28.3009C6.55026 28.8089 6.83247 29.0346 7.29532 28.8089L14.904 25.1513L20.1646 31.7552C20.4806 32.1616 20.8419 32.0713 20.9548 31.5746L22.8287 23.3451H31.2727C31.7807 23.3451 31.9388 23.0064 31.6227 22.6113Z" fill="#ED0000"/>
        <path d="M31.6228 22.6113L26.3622 16.0074L31.6228 9.40342C31.9389 8.99702 31.7808 8.66965 31.2728 8.66965H29.2634C29.1618 8.66965 29.0151 8.72609 28.9473 8.80511L22.0837 16.0074H21.6661L26.9266 9.40342C27.2427 8.99702 27.0847 8.66965 26.5767 8.66965H24.5786C24.477 8.66965 24.3302 8.72609 24.2625 8.80511L17.3989 16.0074H16.9812V27.7703L20.1534 31.7553C20.4694 32.1616 20.8307 32.0713 20.9436 31.5746L22.8175 23.3451H31.2615C31.7808 23.3451 31.9389 23.0064 31.6228 22.6113Z" fill="url(#paint0_linear_3_2734)"/>
        <path d="M31.6226 9.40342L26.362 16.0074H22.0948L28.9584 8.80511C29.0261 8.72609 29.1729 8.66965 29.2745 8.66965H31.2726C31.7806 8.66965 31.9387 9.00831 31.6226 9.40342ZM26.5765 8.66965H24.5784C24.4768 8.66965 24.33 8.72609 24.2623 8.80511L17.3987 16.0074H21.6659L26.9264 9.40342C27.2538 9.00831 27.0958 8.66965 26.5765 8.66965Z" fill="url(#paint1_linear_3_2734)"/>
    </g>
    <defs>
        <linearGradient id="paint0_linear_3_2734" x1="16.9791" y1="20.3408" x2="31.7872" y2="20.3408" gradientUnits="userSpaceOnUse">
            <stop stop-color="#ED0000"/>
            <stop offset="0.077335" stop-color="#E90000"/>
            <stop offset="0.6486" stop-color="#D10000"/>
            <stop offset="1" stop-color="#C80000"/>
        </linearGradient>
        <linearGradient id="paint1_linear_3_2734" x1="24.5931" y1="16.0072" x2="24.5931" y2="8.67448" gradientUnits="userSpaceOnUse">
            <stop stop-color="#A50000" stop-opacity="0"/>
            <stop offset="1" stop-color="#A50000"/>
        </linearGradient>
    </defs>
</svg>