<?xml version="1.0" encoding="utf-8"?>
<!-- Generator: Adobe Illustrator 24.0.3, SVG Export Plug-In . SVG Version: 6.00 Build 0)  -->
<svg xmlns="http://www.w3.org/2000/svg" xmlns:xlink="http://www.w3.org/1999/xlink" version="1.1" id="Layer_1" x="0px" y="0px" viewBox="0 0 41 41" style="enable-background:new 0 0 41 41;" xml:space="preserve">
    <rect xmlns="http://www.w3.org/2000/svg" width="41" height="41"/>
    <g transform="translate(4,4)">
        <path d="M31.6227 22.6113L26.3621 16.0074L31.6227 9.40341C31.9388 8.99701 31.7807 8.66964 31.2727 8.66964H29.2633C29.1617 8.66964 29.015 8.72608 28.9472 8.8051L22.0836 16.0074H21.666L26.9265 9.40341C27.2426 8.99701 27.0846 8.66964 26.5766 8.66964H24.5785C24.4769 8.66964 24.3301 8.72608 24.2624 8.8051L17.3988 16.0074H16.9811L22.7158 8.81639C22.7836 8.73737 22.8174 8.59062 22.7948 8.48902L20.9548 0.440099C20.8419 -0.0678967 20.4806 -0.146918 20.1646 0.259479L14.904 6.86343L7.29532 3.20586C6.83247 2.98008 6.55026 3.20586 6.66314 3.71385L8.53708 11.9434L0.92843 15.601C0.465589 15.8267 0.465589 16.188 0.92843 16.4138L8.53708 20.0713L6.66314 28.3009C6.55026 28.8089 6.83247 29.0346 7.29532 28.8089L14.904 25.1513L20.1646 31.7552C20.4806 32.1616 20.8419 32.0713 20.9548 31.5746L22.8287 23.3451H31.2727C31.7807 23.3451 31.9388 23.0064 31.6227 22.6113Z" fill="#ED0000"/>
        <path d="M31.6228 22.6113L26.3622 16.0074L31.6228 9.40342C31.9389 8.99702 31.7808 8.66965 31.2728 8.66965H29.2634C29.1618 8.66965 29.0151 8.72609 28.9473 8.80511L22.0837 16.0074H21.6661L26.9266 9.40342C27.2427 8.99702 27.0847 8.66965 26.5767 8.66965H24.5786C24.477 8.66965 24.3302 8.72609 24.2625 8.80511L17.3989 16.0074H16.9812V27.7703L20.1534 31.7553C20.4694 32.1616 20.8307 32.0713 20.9436 31.5746L22.8175 23.3451H31.2615C31.7808 23.3451 31.9389 23.0064 31.6228 22.6113Z" fill="url(#paint0_linear_3_2734)"/>
        <path d="M31.6226 9.40342L26.362 16.0074H22.0948L28.9584 8.80511C29.0261 8.72609 29.1729 8.66965 29.2745 8.66965H31.2726C31.7806 8.66965 31.9387 9.00831 31.6226 9.40342ZM26.5765 8.66965H24.5784C24.4768 8.66965 24.33 8.72609 24.2623 8.80511L17.3987 16.0074H21.6659L26.9264 9.40342C27.2538 9.00831 27.0958 8.66965 26.5765 8.66965Z" fill="url(#paint1_linear_3_2734)"/>
    </g>
    <defs>
        <linearGradient id="paint0_linear_3_2734" x1="16.9791" y1="20.3408" x2="31.7872" y2="20.3408" gradientUnits="userSpaceOnUse">
            <stop stop-color="#ED0000"/>
            <stop offset="0.077335" stop-color="#E90000"/>
            <stop offset="0.6486" stop-color="#D10000"/>
            <stop offset="1" stop-color="#C80000"/>
        </linearGradient>
        <linearGradient id="paint1_linear_3_2734" x1="24.5931" y1="16.0072" x2="24.5931" y2="8.67448" gradientUnits="userSpaceOnUse">
            <stop stop-color="#A50000" stop-opacity="0"/>
            <stop offset="1" stop-color="#A50000"/>
        </linearGradient>
    </defs>
</svg>
